<mxfile host="Electron" modified="2024-01-18T11:52:23.507Z" agent="Mozilla/5.0 (Macintosh; Intel Mac OS X 10_15_7) AppleWebKit/537.36 (KHTML, like Gecko) draw.io/22.1.18 Chrome/120.0.6099.199 Electron/28.1.2 Safari/537.36" etag="XnjkerdEpcKSrGqDryJb" version="22.1.18" type="device">
  <diagram id="l3NhRBhDLIf5PnLwlUr5" name="第 1 页">
    <mxGraphModel dx="852" dy="542" grid="1" gridSize="10" guides="1" tooltips="1" connect="1" arrows="1" fold="1" page="1" pageScale="1" pageWidth="827" pageHeight="1169" math="0" shadow="0">
      <root>
        <mxCell id="0" />
        <mxCell id="1" parent="0" />
        <mxCell id="lYbXnk3HmZj_8VDVMcrz-1" value="" style="rounded=0;whiteSpace=wrap;html=1;strokeColor=none;fillColor=none;" parent="1" vertex="1">
          <mxGeometry x="110" y="280" width="580" height="340" as="geometry" />
        </mxCell>
        <mxCell id="oaZKFxYuU0ERnZb8SXf1-8" value="" style="rounded=0;whiteSpace=wrap;html=1;fontFamily=Times New Roman;fontSize=24;fillColor=none;" parent="1" vertex="1">
          <mxGeometry x="280" y="300" width="390" height="300" as="geometry" />
        </mxCell>
        <mxCell id="oaZKFxYuU0ERnZb8SXf1-1" value="&lt;font style=&quot;font-size: 24px;&quot;&gt;Client&lt;/font&gt;" style="rounded=0;whiteSpace=wrap;html=1;fillColor=#90C9E6;strokeColor=#6c8ebf;fontFamily=Times New Roman;" parent="1" vertex="1">
          <mxGeometry x="130" y="420" width="120" height="60" as="geometry" />
        </mxCell>
        <mxCell id="oaZKFxYuU0ERnZb8SXf1-3" value="Scheduler" style="rounded=0;whiteSpace=wrap;html=1;fontSize=24;fillColor=#eeeeee;strokeColor=#36393d;fontFamily=Times New Roman;" parent="1" vertex="1">
          <mxGeometry x="310" y="420" width="120" height="60" as="geometry" />
        </mxCell>
        <mxCell id="oaZKFxYuU0ERnZb8SXf1-4" value="Worker" style="rounded=0;whiteSpace=wrap;html=1;fontSize=24;fillColor=#FB8402;strokeColor=#36393d;fontFamily=Times New Roman;" parent="1" vertex="1">
          <mxGeometry x="480" y="320" width="120" height="60" as="geometry" />
        </mxCell>
        <mxCell id="oaZKFxYuU0ERnZb8SXf1-6" value="Worker" style="rounded=0;whiteSpace=wrap;html=1;fontSize=24;fillColor=#FB8402;strokeColor=#36393d;fontFamily=Times New Roman;" parent="1" vertex="1">
          <mxGeometry x="480" y="420" width="120" height="60" as="geometry" />
        </mxCell>
        <mxCell id="oaZKFxYuU0ERnZb8SXf1-7" value="Worker" style="rounded=0;whiteSpace=wrap;html=1;fontSize=24;fillColor=#FB8402;strokeColor=#36393d;fontFamily=Times New Roman;" parent="1" vertex="1">
          <mxGeometry x="480" y="524.5" width="120" height="60" as="geometry" />
        </mxCell>
        <mxCell id="oaZKFxYuU0ERnZb8SXf1-9" value="&lt;b&gt;Dask 集群&lt;/b&gt;" style="text;html=1;strokeColor=none;fillColor=none;align=center;verticalAlign=middle;whiteSpace=wrap;rounded=0;fontFamily=Times New Roman;fontSize=24;" parent="1" vertex="1">
          <mxGeometry x="290" y="540" width="120" height="50" as="geometry" />
        </mxCell>
        <mxCell id="oaZKFxYuU0ERnZb8SXf1-10" value="" style="endArrow=classic;startArrow=classic;html=1;rounded=0;fontFamily=Times New Roman;fontSize=24;exitX=1;exitY=0.25;exitDx=0;exitDy=0;entryX=0;entryY=0.5;entryDx=0;entryDy=0;strokeWidth=2;" parent="1" source="oaZKFxYuU0ERnZb8SXf1-3" target="oaZKFxYuU0ERnZb8SXf1-4" edge="1">
          <mxGeometry width="50" height="50" relative="1" as="geometry">
            <mxPoint x="800" y="120" as="sourcePoint" />
            <mxPoint x="850" y="70" as="targetPoint" />
          </mxGeometry>
        </mxCell>
        <mxCell id="oaZKFxYuU0ERnZb8SXf1-11" value="" style="endArrow=classic;startArrow=classic;html=1;rounded=0;fontFamily=Times New Roman;fontSize=24;exitX=1;exitY=0.5;exitDx=0;exitDy=0;entryX=0;entryY=0.5;entryDx=0;entryDy=0;strokeWidth=2;" parent="1" source="oaZKFxYuU0ERnZb8SXf1-3" target="oaZKFxYuU0ERnZb8SXf1-6" edge="1">
          <mxGeometry width="50" height="50" relative="1" as="geometry">
            <mxPoint x="440" y="445" as="sourcePoint" />
            <mxPoint x="490" y="360" as="targetPoint" />
          </mxGeometry>
        </mxCell>
        <mxCell id="oaZKFxYuU0ERnZb8SXf1-12" value="" style="endArrow=classic;startArrow=classic;html=1;rounded=0;fontFamily=Times New Roman;fontSize=24;exitX=1;exitY=0.75;exitDx=0;exitDy=0;entryX=0;entryY=0.5;entryDx=0;entryDy=0;strokeWidth=2;" parent="1" source="oaZKFxYuU0ERnZb8SXf1-3" target="oaZKFxYuU0ERnZb8SXf1-7" edge="1">
          <mxGeometry width="50" height="50" relative="1" as="geometry">
            <mxPoint x="420" y="160" as="sourcePoint" />
            <mxPoint x="470" y="110" as="targetPoint" />
          </mxGeometry>
        </mxCell>
        <mxCell id="oaZKFxYuU0ERnZb8SXf1-13" value="" style="endArrow=classic;startArrow=classic;html=1;rounded=0;fontFamily=Times New Roman;fontSize=24;entryX=0;entryY=0.5;entryDx=0;entryDy=0;exitX=1;exitY=0.5;exitDx=0;exitDy=0;strokeWidth=2;" parent="1" source="oaZKFxYuU0ERnZb8SXf1-1" target="oaZKFxYuU0ERnZb8SXf1-3" edge="1">
          <mxGeometry width="50" height="50" relative="1" as="geometry">
            <mxPoint x="-10" y="310" as="sourcePoint" />
            <mxPoint x="40" y="260" as="targetPoint" />
          </mxGeometry>
        </mxCell>
        <mxCell id="oaZKFxYuU0ERnZb8SXf1-17" value="" style="endArrow=none;html=1;rounded=0;strokeWidth=2;fontFamily=Times New Roman;fontSize=18;" parent="1" edge="1">
          <mxGeometry width="50" height="50" relative="1" as="geometry">
            <mxPoint x="640" y="555" as="sourcePoint" />
            <mxPoint x="640" y="349" as="targetPoint" />
          </mxGeometry>
        </mxCell>
        <mxCell id="oaZKFxYuU0ERnZb8SXf1-18" value="" style="endArrow=classic;html=1;rounded=0;strokeWidth=2;fontFamily=Times New Roman;fontSize=18;entryX=1;entryY=0.5;entryDx=0;entryDy=0;" parent="1" target="oaZKFxYuU0ERnZb8SXf1-4" edge="1">
          <mxGeometry width="50" height="50" relative="1" as="geometry">
            <mxPoint x="640" y="350" as="sourcePoint" />
            <mxPoint x="850" y="370" as="targetPoint" />
          </mxGeometry>
        </mxCell>
        <mxCell id="oaZKFxYuU0ERnZb8SXf1-19" value="" style="endArrow=classic;html=1;rounded=0;strokeWidth=2;fontFamily=Times New Roman;fontSize=18;entryX=1;entryY=0.5;entryDx=0;entryDy=0;" parent="1" target="oaZKFxYuU0ERnZb8SXf1-6" edge="1">
          <mxGeometry width="50" height="50" relative="1" as="geometry">
            <mxPoint x="640" y="450" as="sourcePoint" />
            <mxPoint x="860" y="430" as="targetPoint" />
          </mxGeometry>
        </mxCell>
        <mxCell id="oaZKFxYuU0ERnZb8SXf1-20" value="" style="endArrow=classic;html=1;rounded=0;strokeWidth=2;fontFamily=Times New Roman;fontSize=18;entryX=1;entryY=0.5;entryDx=0;entryDy=0;" parent="1" target="oaZKFxYuU0ERnZb8SXf1-7" edge="1">
          <mxGeometry width="50" height="50" relative="1" as="geometry">
            <mxPoint x="640" y="555" as="sourcePoint" />
            <mxPoint x="820" y="470" as="targetPoint" />
          </mxGeometry>
        </mxCell>
      </root>
    </mxGraphModel>
  </diagram>
</mxfile>
